Patient4_TMGait_0pt3_03_right_26_EMG.mot
version=1
nRows=40
nColumns=33
inDegrees=no
endheader
time	1LAddLong	2LGlutMax	3LGlutMed	4LIliopsoas	5LSemiMemb	6LBicFemLong	7LRecFem	8LVastMed	9LVastLat	10LGasMed	11LTibAnt	12lTibPost	13LPeroneusLong	14LSol	15LExtDigLong	16LFlexDigLong	17RAddLong	18RGlutMax	19RGlutMed	20RIliopsoas	21RSemiMemb	22RBicFemLong	23RRecFem	24RVastMed	25RVastLat	26RGasMed	27RTibAnt	28RTibPost	29RPeroneusLong	30RSol	31RExtDigLong	32RFlexDigLong
48.5	0.010071	0.31586	0.054474	-0.014648	-0.046082	-0.004272	0.066528	-0.038605	-0.054779	0.015869	-0.040131	0.007019	0.072937	-0.084534	0.068359	0.014343	0.01297	-0.21652	0.21545	0.056458	0.017853	-0.00473	0.073853	-0.002136	-0.006409	-0.006104	-0.27374	-0.00351	-0.030212	-0.13794	-0.002899	-0.012817
48.501	0.013123	0.37231	-0.10132	0.012512	-0.0354	0.00946	0.077515	-0.01297	-0.024872	0.032806	0.007477	0.007935	0.020294	-0.054321	0.10346	0.009155	0.015717	-0.21133	-0.19379	-0.097656	0.02594	-0.007782	0.063324	0.007172	-0.012207	0.005188	0.026398	-0.002899	-0.05188	-0.13229	-0.00473	-0.009155
48.502	-0.004578	0.35355	-0.08194	0.02121	-0.031281	-0.016327	0.065918	0.007324	-0.045166	-0.011139	0.068817	0.008392	-0.01297	-0.02655	0.1207	0.028381	0.016174	-0.24612	-0.34409	-0.031738	0.037231	-0.014343	0.007782	-0.041199	-0.009918	-0.007172	0.43579	-0.000305	-0.13687	-0.13855	-0.00061	-0.00351
48.503	0.002594	0.31632	0.26581	0.016479	-0.050201	-0.028229	0.057373	-0.001068	-0.011597	-0.035706	0.071564	0.006866	-0.035706	0.035248	0.28153	0.054626	0.017548	-0.20004	-0.64392	0.1265	0.031891	0.00351	-0.20004	-0.032654	-0.02655	-0.009155	0.85297	-0.002594	-0.12589	-0.11307	-0.00061	0.000763
48.504	0.018616	0.26566	0.30609	0.016937	-0.028687	0.002289	0.015564	-0.007019	0.035706	-0.011749	0.091248	0.013428	-0.13977	0.10498	0.36682	-0.01709	0.011749	-0.18723	0.57236	0.15137	0.040283	-0.000458	-0.18097	-0.061035	-0.024567	-0.000916	0.99564	-0.001373	-0.00412	-0.12405	0.006409	0.002441
48.505	0.016022	0.14679	0.35553	0.014191	-0.015259	0.011292	-0.066376	0.009155	0.058594	0.068359	0.013885	0.015259	-0.13168	0.069122	0.22736	-0.38406	0.019989	-0.21683	0.18188	0.043182	0.047607	0.001068	-0.13397	-0.083008	-0.0354	-0.001373	0.48889	-0.003662	0.14328	-0.15869	-0.004578	-0.000458
48.506	0.011902	0.12863	0.20798	0.010834	0.026398	0.10086	-0.070038	0.006561	0.048828	0.14114	-0.020905	0.010986	-0.12756	0.080261	0.043182	-0.083466	0.008545	-0.19257	-0.011444	0.076141	0.077209	0.001373	-0.11856	-0.096893	-0.025635	-0.007019	0.29892	-0.003967	-0.053558	-0.059052	-0.002747	-0.011902
48.507	0.005798	0.084686	0.06897	-0.001221	0.011749	0.12665	0.000916	-0.003815	0.055389	0.18829	0.02182	0.006866	-0.093079	0.050049	-0.000458	0.26077	0.010986	-0.12512	-0.20966	0.14771	0.073547	0.00061	-0.059662	-0.12833	-0.024567	-0.008545	0.35339	-0.003815	-0.10971	-0.020599	-0.007629	-0.001678
48.508	0.00473	-0.052032	-0.039673	0.009308	0.041046	0.071564	0.013733	0.002136	0.21118	0.10498	0.017395	0.005035	-0.018311	0.15411	0.072632	0.008392	0.011902	-0.1059	-0.31952	0.074921	0.076599	0.023956	-0.013885	-0.037689	-0.018311	0.00351	0.25986	-0.001984	-0.10468	-0.053711	-0.002747	0.001831
48.509	0.004425	-0.12878	-0.103	-0.001526	0.020905	0.032654	0.030518	0.005798	0.18463	0.005646	0.00351	0.001984	0.012665	0.18906	0.054779	0.012512	0.019073	-0.07782	-0.28503	-0.11459	0.067596	-0.005951	0.14053	-0.019073	-0.017853	0.004883	-0.29205	-0.003052	-0.023499	-0.14374	-0.002136	0.000916
48.51	0.005493	-0.095978	-0.11719	0.001831	0.067139	0.00946	-0.066986	0.010986	-0.054321	-0.037689	0.007629	0.006409	0.074158	0.020752	0.048828	0.16449	0.01236	-0.047302	0.44479	-0.25116	0.074463	-0.000916	0.30991	0.023956	0.002747	-0.001831	-0.32135	0.006866	-0.15106	-0.13428	-0.001068	-0.004425
48.511	0.011902	-0.13657	-0.084076	0.016327	0.050964	0.004883	-0.021515	0.022125	-0.32349	0.12329	0.011139	0.0177	0.10574	-0.22797	0.037231	0.12756	0.015869	-0.054474	-0.079346	-0.16617	0.078735	-0.020142	0.37476	0.070496	0.030365	-0.007477	-0.10071	-0.003052	-0.1857	-0.095215	-0.002594	-0.008087
48.512	0.017242	-0.11063	-0.096741	0.026855	0.040436	-0.14557	-0.10651	0.02594	-0.40054	0.11993	0.052795	0.006104	0.075073	-0.32486	0.039215	-0.56717	0.013275	-0.078888	-0.27298	-0.028687	0.074158	-0.00824	0.35385	0.049744	0.033722	0.003357	-0.10986	-0.004578	-0.036926	0.010834	-0.003815	0
48.513	0.045929	-0.04303	-0.11551	0.028992	0.037537	-0.15839	-0.13412	0.022888	-0.16617	-0.11719	0.070343	0.014954	-0.028076	-0.064697	0.081024	0.37979	0.013275	-0.10864	0.12787	-0.062256	0.084839	0.002289	0.14557	0.052185	0.023651	-0.006409	-0.31982	-0.00824	0.027466	0.013733	-0.00061	-0.010681
48.514	0.049133	-0.049744	-0.086517	-0.009766	0.036316	0.014038	-0.12528	0.02594	0.040131	-0.068359	0.17838	0.028534	-0.069275	0.1561	0.069122	0.15396	0.012512	-0.10971	-0.076904	-0.085602	0.075226	-0.007019	0.11612	0.047913	0.042267	-0.004272	-0.071869	-0.002441	0.023651	-0.082703	-0.002594	-0.015259
48.515	0.014496	-0.057678	-0.049744	-0.024719	0.03479	0.11063	-0.076599	0.014191	0.14389	0.004883	0.35004	0.037079	-0.040588	0.2742	0.090179	0.058746	0.016174	-0.10681	-0.042267	-0.062714	0.086212	0.005646	0.17807	0.070648	0.046234	-0.002289	-0.067749	-0.003204	-0.037079	-0.005798	-0.003815	-0.006104
48.516	0.001526	-0.009003	-0.076447	-0.003052	0.012665	0.098877	0.077057	0.001068	0.18326	0.036469	0.31128	-0.010223	0.010529	0.089264	0.7608	0.2182	0.019073	-0.096283	0.54382	-0.010071	0.075531	0.006866	0.1709	0.058441	0.025635	0.002594	-0.048828	-0.005798	-0.085602	-0.052032	-0.004425	-0.012665
48.517	0.003815	0.036011	-0.10376	0.009155	-0.016632	0.061188	0.15549	0.005188	0.13336	0.045776	0.016937	-0.026093	-0.038605	-0.10696	0.58105	0.13458	0.018616	-0.098724	0.27283	0.12985	0.092773	-0.005493	0.14999	0.022125	-0.004425	0.006714	0.10925	-0.003204	-0.11948	-0.15121	0.001526	-0.011139
48.518	0.019836	0.075989	-0.024109	-0.005951	-0.064087	0.026093	0.15274	-0.009766	0.072327	0.029297	-0.33844	-0.000153	-0.036316	-0.16205	0.052185	-0.19134	0.010834	-0.12512	-0.040741	0.10315	0.092773	0.017548	-0.18387	-0.001068	0	0.002441	0.04715	-0.002594	-0.095825	-0.16419	-0.003052	-0.009155
48.519	0.018311	0.11078	-0.032501	-0.003357	-0.038757	0.015106	0.11368	-0.019379	0.050354	0.015259	-0.19394	0.009613	-0.061798	-0.10895	-0.62317	0.18387	-0.001373	-0.12924	0.55237	-0.058594	0.098724	0.000458	-0.22339	-0.016937	0.000305	-0.003357	0.16312	-0.008545	-0.034332	-0.11795	-0.003967	-0.010223
48.52	0.005493	0.1355	-0.039063	0.006866	0.041656	0.012512	0.10635	-0.02533	0.029755	0.005646	-0.15381	0.009766	-0.065308	-0.006409	-0.85571	0.050659	0.005646	-0.13184	0.69473	-0.004883	0.097198	0.000763	-0.12528	-0.090637	0.003204	-0.00824	0.45517	0.000305	-0.08255	0.019989	-0.002289	-0.009155
48.521	-0.016022	0.11932	-0.045166	0.010376	0.034637	0.046234	0.13718	-0.005951	0.068817	-0.016174	-0.15289	0.013733	-0.008392	0.001221	-0.70938	-0.023041	0.009918	-0.10788	0.41443	0.055847	0.099335	0.002899	0.040436	-0.085602	0.024719	-0.020142	0.54688	-0.003052	-0.20004	0.13977	-0.00412	-0.003815
48.522	-0.023193	0.098877	0.023651	0.016785	-0.020599	0.086212	0.086975	0.019073	0.11719	-0.017242	0.007019	0.00946	-0.000916	-0.017395	-0.57602	-0.035858	0.010071	-0.17792	-0.33035	0.059662	0.10605	-0.004883	0.15121	-0.053253	0.014648	-0.017395	0.62164	-0.008392	-0.16571	0.11368	-0.005341	-0.005341
48.523	-0.01358	0.09201	0.01358	-0.002289	-0.045013	0.051575	-0.026093	0.022583	0.19486	-0.014038	-0.065613	0.004425	0.023346	-0.074005	-0.32867	0.019989	0.014191	-0.16754	-0.55969	0.059204	0.10056	-0.011444	0.16693	-0.042877	0.005341	-0.011597	0.33905	0.005188	-0.04837	0.011444	-0.001984	0.000458
48.524	-0.020905	0.088654	-0.13443	-0.000916	0.03006	0.017548	0.007172	0.043182	0.18555	0.014496	-0.077972	0.001526	-0.10559	-0.076904	0.055847	-0.17609	0.006714	-0.19516	0.033875	0.10391	0.10605	-0.009918	0.1384	-0.093536	0.006104	-0.005951	0.021973	-0.006104	0.026398	-0.043182	-0.003662	0.00946
48.525	-0.00885	0.085297	-0.12817	-0.005951	0.039215	-0.010071	0.10819	0.03891	0.16388	0.023499	-0.039978	0.010071	-0.15793	-0.02594	0.24628	0.09903	0.00473	-0.18143	0.56717	0.073395	0.10407	0.002594	0.27374	-0.091248	0.030518	-0.002899	-0.39108	-0.002747	0.001526	-0.075989	-0.001526	-0.005341
48.526	-0.023041	0.14847	-0.053558	0.011597	0.009308	-0.016174	0.10422	0.034027	0.060425	0.00824	0.015106	-0.000763	-0.041809	0.008698	0.31952	-0.10559	-0.001984	-0.17929	0.7544	0.063934	0.097809	-0.011139	0.33814	-0.058289	0.053253	-0.009155	-0.44037	-0.000916	-0.074005	-0.065002	-0.003967	0.00351
48.527	-0.014343	0.13214	-0.031433	0.029755	-0.001221	-0.026245	0.013885	0.034943	-0.25559	-0.017395	-0.019073	0.007172	0.042114	0.010376	0.11749	-0.20432	0.022736	-0.16541	0.29892	0.03418	0.10986	0.010834	0.29068	-0.061035	0.055847	0.00351	-0.2504	-0.007782	-0.084991	-0.091248	-0.00885	-0.003357
48.528	-0.009613	0.13809	-0.020905	0.016327	-0.010223	0.010529	-0.12817	0.017853	-0.30731	0.003967	-0.015411	0.002289	-0.001984	-0.007782	-0.034485	-0.081329	0.016174	-0.086517	0.14572	0.011749	0.099182	-0.013885	0.19928	-0.08316	0.067139	0.003204	-0.18097	-0.004883	0.18753	-0.13062	-0.005188	-0.005341
48.529	-0.013123	0.17517	0.021515	-0.001068	0.021667	0.032959	-0.18478	-0.015106	-0.22324	-0.002441	0.001984	0.002136	-0.032806	-0.015564	-0.037994	0.079041	0.002136	-0.10162	0.057373	-0.10361	0.09079	-0.018005	0.20874	-0.023651	0.054626	0.005951	0.44052	-0.002747	0.17532	-0.045624	-0.001984	-0.002441
48.53	-0.011749	0.15549	0.012817	-0.016785	0.00885	0.042725	-0.14572	-0.0383	-0.071259	-0.000153	0.003815	0.00473	-0.0177	0.017548	0.00351	0.081635	-0.006409	-0.1387	-0.18021	-0.086517	0.084229	-0.008545	0.15045	-0.046539	0.020905	-0.002899	0.42389	-0.011139	-0.002289	0.072784	-0.014038	-0.001984
48.531	-0.02121	0.11719	-0.007324	0.018463	0.009308	0.052032	-0.19943	-0.031586	0.021362	0.014191	-0.011139	0.006409	-0.029907	-0.033417	0.001831	-0.029297	-0.005493	-0.11307	-0.050507	-0.041504	0.090485	-0.019836	0.17853	0.024719	0.018463	-0.01358	0.15045	-0.007172	-0.112	0.17609	-0.008698	-0.013123
48.532	-0.005035	0.14755	0.021667	0.022278	-0.018311	0.027924	-0.14114	-0.004272	0.019073	0.012817	0.002136	0.003967	-0.0383	-0.007935	0.030518	-0.010071	0.000763	-0.1181	0.22934	0.058899	0.09201	0.006104	0.22614	0.004883	0.014343	-0.00824	-0.029144	-0.008392	-0.10208	0.13809	-0.006714	-0.013123
48.533	0.012512	0.20508	0.024872	0.023499	-0.011902	-0.022888	-0.10834	-0.020447	0.029602	0.043945	0.02182	-0.000458	-0.061798	0.00824	0.074158	-0.017548	0.002441	-0.093842	0.31082	0.053101	0.091858	0.011139	0.15945	0.015259	0.014801	-0.002441	-0.29465	-0.008087	-0.068054	0.02182	-0.003662	-0.00351
48.534	0.023193	0.16037	0.078583	0.010071	0.017395	-0.02594	-0.068207	-0.026245	0.003204	0.014343	0.048981	0.005188	-0.049438	-0.012512	0.097046	-0.011597	-0.016937	-0.11673	0.1593	0.061798	0.10666	0.001068	0.021667	0.003204	0.002747	0.00412	-0.48233	-0.003967	-0.007935	-0.032349	-0.003967	-0.00946
48.535	0.020447	0.075378	-0.050964	0.000916	0.020752	-0.014801	-0.020905	-0.025024	-0.004425	0.009918	0.058441	0.006256	-0.015106	-0.012817	0.1004	-0.009155	0.003052	-0.1471	0.26108	0.016479	0.12161	0.025482	-0.052032	-0.00351	-0.013275	0.001373	-0.48126	-0.002289	0.14404	0.00946	-0.005341	-0.011902
48.536	0.033264	0.10086	-0.053711	0.004272	0.018921	-0.000916	0.04303	0.007629	-0.049133	0.033264	0.003204	-0.001831	-0.021362	-0.006714	0.073547	0.00412	0.091858	-0.059662	0.23315	0.017853	0.11353	0.007629	-0.087585	-0.027313	-0.015106	-0.002747	-0.35477	-0.014648	0.2388	0.025024	-0.001678	-0.010071
48.537	0.031433	0.11658	0.011597	0.03067	0.012817	0.001831	0.15213	0.009766	-0.04715	0.04837	-0.014496	0.001678	-0.035706	0.027008	0.04837	0.011444	0.10193	-0.10819	-0.1767	-0.003662	0.11169	-0.021057	-0.11475	0.005493	0.001068	-0.008392	-0.075073	-0.006714	-0.33646	0.006104	-0.003357	-0.004272
48.538	0.027618	0.079498	0.049286	0.027313	0.014038	0.018463	0.24933	-0.001678	0.016022	0.04364	-0.024261	-0.001068	-0.029755	0.020905	0.085449	0.009155	0.077057	-0.066681	-0.44891	-0.059204	0.097198	-0.023499	-0.047607	0.009308	-0.011749	-0.005951	0.12772	-0.002899	-0.19424	-0.071716	-0.00351	-0.002441
48.539	0.02655	0.087433	0.016479	0.014648	-0.009003	0.02182	0.19699	-0.008392	0.032043	0.031433	-0.002899	-0.001221	-0.052795	0.025024	0.22201	0.001984	0.037079	-0.072327	-0.41321	-0.07309	0.085449	-0.018616	0.009766	0.005035	-0.021973	-0.008392	0.19745	-0.006104	-0.048218	-0.070648	-0.001373	-0.002747
